<mxfile host="app.diagrams.net" modified="2024-05-07T16:06:28.757Z" agent="Mozilla/5.0 (Windows NT 10.0; Win64; x64) AppleWebKit/537.36 (KHTML, like Gecko) Chrome/124.0.0.0 Safari/537.36" version="24.3.1" etag="Fk6KMK7nT81oaGN0bzLT" type="github">
  <diagram name="PÃ¡gina-1" id="CHJCyfsQGY5luExKObcd">
    <mxGraphModel>
      <root>
        <mxCell id="0" />
        <mxCell id="1" parent="0" />
      </root>
    </mxGraphModel>
  </diagram>
</mxfile>
